<svg width="57" height="56" viewBox="0 0 57 56" fill="none" xmlns="http://www.w3.org/2000/svg">
<path d="M47.2836 31.0438H33.4436V24.24C33.4436 24.0544 33.3699 23.8762 33.2386 23.745C33.1074 23.6138 32.9293 23.54 32.7436 23.54H31.1115V9.7C31.1115 9.51406 31.0377 9.33625 30.9065 9.205C30.7752 9.07375 30.5971 9 30.4115 9H15.8723C15.4857 9 15.1723 9.31313 15.1723 9.7V23.54H10.7001C10.3133 23.54 10.0001 23.8531 10.0001 24.24V46.2832C10.0001 46.4691 10.0739 46.647 10.2051 46.7782C10.3364 46.9095 10.5142 46.9832 10.7001 46.9832H47.2833C47.4693 46.9832 47.6471 46.9095 47.7783 46.7782C47.9096 46.647 47.9833 46.4691 47.9833 46.2832V31.7432C47.9833 31.5576 47.9096 31.3798 47.7783 31.2482C47.6471 31.117 47.4693 31.0432 47.2833 31.0432L47.2836 31.0438ZM40.0143 34.6222H38.8412V32.4438H41.1868V34.6222H40.0143ZM23.1423 12.5782H21.9692V10.4006H24.3154L24.3157 12.5782H23.1423ZM16.5729 10.4006H20.5692V13.2782C20.5692 13.4638 20.6429 13.6419 20.7742 13.7732C20.9054 13.9044 21.0835 13.9782 21.2692 13.9782H25.0157C25.2013 13.9782 25.3792 13.9044 25.5104 13.7732C25.642 13.6419 25.7157 13.4638 25.7157 13.2782V10.4006H29.712V23.5406H16.5728L16.5729 10.4006ZM21.7229 28.9646L20.2829 28.9643V24.9402H23.162V28.9646L21.7229 28.9646ZM11.4005 24.9402H18.8827V29.6646V29.6643C18.8827 29.85 18.9564 30.0281 19.0877 30.1593C19.2189 30.2906 19.3971 30.3643 19.5827 30.3643H23.8617C24.0473 30.3643 24.2255 30.2906 24.3567 30.1593C24.488 30.0281 24.5617 29.85 24.5617 29.6643V24.9402H32.0439V45.5834H11.4007L11.4005 24.9402ZM46.5837 45.5834H33.4437V32.4434H37.4406V35.3218H37.4409C37.4409 35.5075 37.5147 35.6856 37.6459 35.8168C37.7772 35.9481 37.9553 36.0218 38.1409 36.0218H41.8865C42.0721 36.0218 42.2503 35.9481 42.3815 35.8168C42.5128 35.6856 42.5865 35.5075 42.5865 35.3218V32.4434H46.5834L46.5837 45.5834Z" fill="#FB7185"/>
</svg>
