<svg width="56" height="56" viewBox="0 0 56 56" fill="none" xmlns="http://www.w3.org/2000/svg">
<path d="M36.3628 34.1693L35.6187 34.6946C34.2856 35.6356 33.0271 36.5274 30.0771 38.1537C29.1458 38.6668 28.5553 38.774 28.2212 38.774C27.8493 38.774 27.6034 38.649 27.473 38.3924C27.3455 38.1468 27.3618 37.8712 27.4037 37.7327C29.9302 36.0683 31.0787 34.6715 30.913 33.4618C30.8208 32.7859 30.3158 32.2427 29.5649 32.0077C28.6799 31.7361 27.2542 32.4502 25.7311 33.2471C24.8567 33.7033 23.867 34.2233 23.3973 34.272C20.6686 34.5639 19.1183 35.7614 18.2455 36.9086C17.9402 36.3127 17.3658 35.9014 16.698 35.9014H12.1867C11.2051 35.9014 10.407 36.7798 10.407 37.8589V47.4829C10.407 48.5635 11.2052 49.4419 12.1867 49.4419H16.698C17.6536 49.4419 18.4289 48.6085 18.4711 47.5672C18.5567 47.5672 18.6408 47.5685 18.7358 47.5685C19.6699 47.5685 20.9583 47.5425 21.7768 47.4191L22.1689 47.3635C23.7342 47.1463 26.9924 46.6957 31.7889 44.6213C33.0965 44.0526 38.8999 37.5482 39.4565 36.0309C39.6736 35.4403 39.6002 34.7712 39.2624 34.2865C38.6899 33.4596 37.5127 33.3687 36.363 34.1696L36.3628 34.1693ZM16.698 48.1253H12.1867C11.9354 48.1253 11.7223 47.8306 11.7223 47.4819V37.8579C11.7223 37.5104 11.9354 37.2173 12.1867 37.2173H16.698C16.9492 37.2173 17.1636 37.5104 17.1636 37.8579V47.4819C17.1636 47.8303 16.9492 48.125 16.698 48.125V48.1253ZM38.222 35.5757C37.7904 36.7513 32.2636 42.9798 31.2669 43.4145C26.6348 45.4154 23.4963 45.8485 21.9893 46.0576L21.5806 46.116C21.0021 46.2029 19.9922 46.2516 18.735 46.2516H18.4784V39.3238C18.5531 38.956 19.2684 36.0356 23.5381 35.5782C24.2562 35.5007 25.2215 34.9973 26.3402 34.412C27.319 33.9001 28.5355 33.2636 29.164 33.2636H29.1721C29.2143 33.2757 29.5753 33.3939 29.6093 33.6382C29.6324 33.8067 29.5902 34.742 26.544 36.7198L26.3662 36.8867C25.9793 37.4242 25.9493 38.3095 26.2997 38.9911C26.95 40.2646 28.6213 40.4574 30.7118 39.3049C33.7271 37.6405 35.0737 36.6889 36.3771 35.767L37.113 35.2498C37.9452 34.6689 38.0646 34.867 38.1814 35.0367C38.2764 35.1711 38.2914 35.3858 38.2221 35.5758L38.222 35.5757Z" fill="#FB7185"/>
<path d="M15.5972 45.6078C15.5972 46.245 15.0806 46.7615 14.4431 46.7615C13.8059 46.7615 13.2893 46.245 13.2893 45.6078C13.2893 44.9703 13.8059 44.4537 14.4431 44.4537C15.0806 44.4537 15.5972 44.9703 15.5972 45.6078" fill="#FB7185"/>
<path d="M45.8219 26.1462C45.5475 18.2627 39.991 11.4966 32.3075 9.72936C32.2003 7.65496 30.4775 6 28.3747 6C26.2731 6 24.5519 7.65504 24.4431 9.72784C16.7594 11.4941 11.2015 18.2607 10.9255 26.1463C9.28027 26.3988 7.99995 28.0712 7.99995 30.1987V30.8572H48.0879L48.7476 30.7525V30.0941C48.7491 28.0616 47.4663 26.3972 45.8223 26.1462L45.8219 26.1462ZM25.2523 10.9022L25.828 10.7894L25.7545 9.93407C25.7545 8.49095 26.9289 7.31535 28.3745 7.31535C29.8204 7.31535 30.9973 8.49095 30.9852 10.0401L30.9198 10.7894L31.4955 10.9023C38.8333 12.3401 44.217 18.6704 44.5186 26.0935H12.2291C12.5319 18.6691 17.9147 12.3383 25.2523 10.9023L25.2523 10.9022ZM9.36115 29.5406C9.55522 28.3255 10.374 27.4119 11.3499 27.4119H45.3978C46.3765 27.4119 47.1953 28.3269 47.3894 29.5406H9.36115Z" fill="#FB7185"/>
<path d="M14.8996 21.3549L16.1146 21.864C17.464 18.6561 19.9308 16.0496 23.0587 14.5277L22.483 13.3412C19.0674 15.004 16.374 17.8496 14.8996 21.3548L14.8996 21.3549Z" fill="#FB7185"/>
</svg>
