<svg width="57" height="56" viewBox="0 0 57 56" fill="none" xmlns="http://www.w3.org/2000/svg">
<path d="M17.1358 24.4457C16.5411 24.1275 15.7486 24.286 15.3679 24.971L9.65634 35.5966C9.31384 36.2391 9.55321 37.0322 10.1885 37.3644L12.3585 38.5107C13.4713 39.1603 14.982 38.9407 15.841 37.7997L17.4854 38.8188L16.7967 39.8804C16.2563 40.7088 16.482 41.8363 17.3307 42.392C17.716 42.636 18.1542 42.7388 18.6466 42.6526C18.3916 43.4457 18.7057 44.2957 19.3841 44.7316C20.0151 45.1385 20.7769 45.1041 21.3485 44.7316C21.4314 45.2147 21.7045 45.666 22.1498 45.9585C22.8073 46.3785 23.6023 46.3191 24.1333 45.9522C24.2098 46.4357 24.483 46.887 24.928 47.1794C25.8014 47.7363 26.9027 47.4635 27.4396 46.6454L28.203 45.4616L29.722 46.4032C30.6542 47.0845 31.993 46.871 32.6668 45.9179C32.8852 45.616 33.0111 45.2742 33.0496 44.9266C33.8621 45.1304 34.7899 44.7985 35.2799 44.1063C35.4902 43.8157 35.6196 43.4832 35.6618 43.136C36.5071 43.3757 37.4349 43.0407 37.9477 42.327C38.2905 41.8423 38.3999 41.2588 38.2983 40.7148C38.8296 40.6167 39.313 40.3139 39.6367 39.8632C39.9983 39.3588 40.1364 38.7245 39.937 38.0432L41.6392 37.7735C42.1154 39.1625 43.5795 39.8273 44.8476 39.4419L47.2551 38.8082C47.8854 38.6338 48.3045 37.9691 48.1192 37.2982L44.9605 25.6446C44.8723 25.3274 44.6689 25.0639 44.3692 24.8917C44.0792 24.738 43.7492 24.7005 43.4383 24.7874L40.7789 25.5483C39.7483 25.8642 38.9458 26.8633 38.9445 28.0605L38.1001 28.2505C37.4557 28.4039 36.7929 28.3423 36.1976 28.0848C36.1117 28.042 34.1048 27.0232 33.3317 26.8452C32.0895 26.5542 30.8311 26.952 29.5945 27.6896C28.1601 27.4096 26.2629 27.3264 24.1248 27.9839C22.5948 28.4542 21.5655 28.3989 20.8755 28.1699C20.893 27.1352 20.3354 26.242 19.551 25.7908L17.1358 24.4457ZM41.1286 26.7238L43.7776 25.9679L46.936 37.6223L44.5139 38.2604C43.7892 38.481 42.9801 38.067 42.7664 37.2979C42.7657 37.2961 42.7654 37.2945 42.7648 37.2932L40.2254 28.4469C40.0026 27.675 40.4936 26.919 41.1286 26.7237L41.1286 26.7238ZM24.4862 29.156C25.8106 28.7488 27.0409 28.6644 28.098 28.7354C27.144 29.4907 26.2131 30.371 25.3236 31.2138C24.5605 31.9253 24.3939 33.1144 25.023 34.0428C25.6796 34.9944 26.9683 35.2766 27.9624 34.6809L30.362 33.2262C31.0002 32.8459 31.1904 32.8887 31.8042 33.294C32.4827 33.7668 29.347 31.5809 38.438 37.9187C38.832 38.2 38.9233 38.7515 38.6398 39.1466C38.3698 39.5222 37.842 39.6325 37.4405 39.3728L34.0977 37.0003C33.8221 36.8044 33.438 36.8691 33.2421 37.1453C33.0458 37.4219 33.1108 37.8053 33.3874 38.0013L36.7433 40.3829C36.7433 40.3832 36.7433 40.3832 36.7436 40.3835C37.1358 40.6669 37.2264 41.2207 36.9486 41.6132C36.6752 41.9925 36.1108 42.0991 35.7177 41.821C35.5174 41.6782 31.2989 38.676 31.568 38.8675C31.2924 38.6716 30.9083 38.7363 30.7124 39.0129C30.5161 39.2894 30.5811 39.6725 30.8577 39.8685L34.0593 42.1406C34.0659 42.1456 34.069 42.1534 34.0759 42.1584C34.4709 42.4425 34.5734 42.9881 34.2821 43.3906C34.0062 43.7809 33.4505 43.8853 33.0539 43.595C32.6746 43.325 28.9115 40.6462 29.1518 40.8174C28.8759 40.6212 28.4921 40.6862 28.2962 40.9628C28.0999 41.239 28.1649 41.6221 28.4415 41.8184L31.4568 43.9584C31.4624 43.9627 31.4649 43.9693 31.4705 43.9737C31.8627 44.2602 31.9533 44.8089 31.6687 45.2021C31.3933 45.5921 30.8702 45.7174 30.4077 45.3849L28.8615 44.4262C29.3699 43.5746 29.099 42.5137 28.2915 41.9837C27.8465 41.6974 27.3252 41.634 26.8483 41.7546C26.9627 41.0681 26.664 40.3497 26.0471 39.9493C25.6021 39.6631 25.0808 39.5931 24.6036 39.7203C24.7086 39.039 24.4092 38.3216 23.7899 37.9209C23.0842 37.4759 22.1877 37.565 21.5964 38.0994C21.4883 37.654 21.2149 37.26 20.8208 37.0056C19.9814 36.4653 18.8561 36.7068 18.3095 37.5462L18.1526 37.7881L16.4689 36.7443L20.5402 29.4337C20.5542 29.4084 20.5636 29.3812 20.577 29.3559C21.4892 29.64 22.7526 29.6893 24.4861 29.1559L24.4862 29.156Z" fill="#FB7185"/>
<path d="M22.3038 21.2497L26.3059 21.2565L28.4778 24.0347C28.9759 24.6716 29.9409 24.6734 30.4406 24.0338L32.6215 21.2497H36.6028C38.095 21.2497 39.3094 20.0356 39.3094 18.5431V10.7003C39.3094 9.21128 38.0981 8 36.6091 8H22.3035C20.8144 8 19.6028 9.21408 19.6028 10.7066V18.5431C19.6031 20.0356 20.8147 21.2497 22.3035 21.2497L22.3038 21.2497ZM20.8307 10.7065C20.8307 9.89086 21.4913 9.22742 22.3038 9.22742H36.6094C37.4215 9.22742 38.0822 9.88805 38.0822 10.7002V18.543C38.0822 19.3586 37.4187 20.0221 36.6031 20.0221H32.6219C32.2353 20.0221 31.8775 20.1968 31.64 20.5011L29.4453 23.2786L27.2731 20.5002C27.0353 20.1968 26.6778 20.0224 26.2925 20.0224H22.3043C21.4919 20.0224 20.8312 19.359 20.8312 18.5434L20.8307 10.7065Z" fill="#FB7185"/>
<path d="M27.799 16.5264C27.6424 16.4586 27.4449 16.4724 27.3143 16.6139C27.1018 16.8458 27.2024 17.2008 27.4765 17.3142C27.999 17.5367 28.5668 17.6718 29.1649 17.7167V18.2661C29.1649 18.4658 29.3061 18.5839 29.4824 18.5839C29.6821 18.5839 29.8086 18.4421 29.8086 18.2661V17.7167C31.1158 17.6199 31.7821 16.8508 31.7821 16.002C31.7821 14.8592 30.9165 14.5036 29.8086 14.2361V12.3155C30.2211 12.3367 30.613 12.412 30.9718 12.5383C31.0361 12.5642 31.0883 12.5773 31.1314 12.5773C31.2521 12.5773 31.3514 12.5323 31.4261 12.4442C31.498 12.3598 31.5346 12.2627 31.5346 12.1567C31.5346 11.9608 31.4377 11.8226 31.2558 11.758C30.8343 11.5967 30.3477 11.5014 29.8086 11.4745L29.8089 10.9436C29.8089 10.853 29.7767 10.7755 29.7139 10.7123C29.5871 10.5858 29.3733 10.5867 29.2542 10.7136C29.1952 10.7764 29.1649 10.8539 29.1649 10.9436V11.4861C28.0714 11.5958 27.2596 12.2692 27.2596 13.2845C27.2596 14.3545 28.1505 14.7326 29.1649 15.0063V16.8594C28.6911 16.831 28.2317 16.7188 27.7989 16.5263L27.799 16.5264ZM28.4205 13.7564C28.2452 13.6305 28.1602 13.4571 28.1602 13.2252C28.1602 12.9808 28.2531 12.7883 28.4446 12.6371C28.6259 12.4936 28.8681 12.3964 29.1652 12.3483V14.0767C28.8415 13.9858 28.5912 13.8786 28.4205 13.7564V13.7564ZM29.8089 16.8577V15.1684C30.1624 15.2684 30.4339 15.3752 30.6171 15.4859C30.8012 15.598 30.8905 15.7496 30.8905 15.9502C30.8909 16.494 30.5365 16.7915 29.8089 16.8578V16.8577Z" fill="#FB7185"/>
</svg>
