<svg width="56" height="56" viewBox="0 0 56 56" fill="none" xmlns="http://www.w3.org/2000/svg">
<path d="M48.5656 14.456L30.2048 6.86096L29.673 8.156L47.6002 15.5691V16.8573L28.2658 8.85568C28.0908 8.78568 27.9017 8.78568 27.7339 8.85568L8.39946 16.8498V15.5616L26.3267 8.1488L25.7948 6.85376L7.43399 14.4556C7.17492 14.5606 6.99992 14.8197 6.99992 15.0997V17.8997C6.99992 18.1306 7.11899 18.3547 7.30805 18.4806C7.50399 18.6137 7.74899 18.6347 7.96618 18.5437L9.80026 17.7878V37.4998C9.80026 37.8848 10.1153 38.1998 10.5003 38.1998H45.5003C45.8853 38.1998 46.2003 37.8848 46.2003 37.4998V17.7878L48.0344 18.5437C48.1184 18.5787 48.2094 18.5997 48.3003 18.5997C48.4334 18.5997 48.5734 18.5578 48.6922 18.4806C48.8881 18.3475 49.0003 18.1306 49.0003 17.8997V15.0997C49.0003 14.8197 48.8322 14.5606 48.5662 14.4556L48.5656 14.456ZM44.7997 36.8H11.1997V17.2072L27.9997 10.2562L44.7997 17.2072V36.8Z" fill="#FB7185"/>
<path d="M26.6 27H18.2C17.815 27 17.5 27.315 17.5 27.7V34.7C17.5 35.085 17.815 35.4 18.2 35.4H26.6C26.985 35.4 27.3 35.085 27.3 34.7V27.7C27.3 27.315 26.985 27 26.6 27ZM21.7 28.4H23.1V30.2131L22.8969 30.01C22.6238 29.7369 22.1828 29.7369 21.91 30.01L21.7069 30.2131V28.4H21.7ZM25.9 34H18.9V28.4H20.3V31.9C20.3 32.18 20.4681 32.439 20.7341 32.544C20.9931 32.649 21.2941 32.5931 21.4972 32.39L22.4003 31.4869L23.3034 32.39C23.4366 32.5231 23.6184 32.5931 23.8003 32.5931C23.8913 32.5931 23.9822 32.579 24.0663 32.5372C24.3253 32.4322 24.5003 32.1731 24.5003 31.8931V28.3931H25.9003V33.9931L25.9 34Z" fill="#FB7185"/>
<path d="M26.6 17.2H18.2C17.815 17.2 17.5 17.515 17.5 17.8999V24.8999C17.5 25.2849 17.815 25.5999 18.2 25.5999H26.6C26.985 25.5999 27.3 25.2849 27.3 24.8999V17.8999C27.3 17.515 26.985 17.2 26.6 17.2ZM21.7 18.5999H23.1V20.4131L22.8969 20.2099C22.6238 19.9368 22.1828 19.9368 21.91 20.2099L21.7069 20.4131V18.5999H21.7ZM25.9 24.1999H18.9V18.5999H20.3V22.0999C20.3 22.3799 20.4681 22.639 20.7341 22.744C20.9931 22.849 21.2941 22.7931 21.4972 22.5899L22.4003 21.6868L23.3034 22.5899C23.4366 22.7231 23.6184 22.7931 23.8003 22.7931C23.8913 22.7931 23.9822 22.779 24.0663 22.7371C24.3253 22.6321 24.5003 22.3731 24.5003 22.0931V18.5931H25.9003V24.1931L25.9 24.1999Z" fill="#FB7185"/>
<path d="M29.4 35.4H37.8C38.185 35.4 38.5 35.085 38.5 34.7V27.7C38.5 27.315 38.185 27 37.8 27H29.4C29.015 27 28.7 27.315 28.7 27.7V34.7C28.7 35.085 29.015 35.4 29.4 35.4ZM32.9 28.4H34.3V30.2131L34.0969 30.01C33.8238 29.7369 33.3828 29.7369 33.11 30.01L32.9069 30.2131V28.4H32.9ZM30.1 28.4H31.5V31.9C31.5 32.18 31.6681 32.439 31.9341 32.544C32.1931 32.649 32.4941 32.5931 32.6972 32.39L33.6003 31.4869L34.5034 32.39C34.6366 32.5231 34.8184 32.5931 35.0003 32.5931C35.0913 32.5931 35.1822 32.579 35.2663 32.5372C35.5253 32.4322 35.7003 32.1731 35.7003 31.8931V28.3931H37.1003V33.9931H30.1003V28.3931L30.1 28.4Z" fill="#FB7185"/>
<path d="M29.4 25.5999H37.8C38.185 25.5999 38.5 25.2849 38.5 24.8999V17.8999C38.5 17.515 38.185 17.2 37.8 17.2H29.4C29.015 17.2 28.7 17.515 28.7 17.8999V24.8999C28.7 25.2849 29.015 25.5999 29.4 25.5999ZM32.9 18.5999H34.3V20.4131L34.0969 20.2099C33.8238 19.9368 33.3828 19.9368 33.11 20.2099L32.9069 20.4131V18.5999H32.9ZM30.1 18.5999H31.5V22.0999C31.5 22.3799 31.6681 22.639 31.9341 22.744C32.1931 22.849 32.4941 22.7931 32.6972 22.5899L33.6003 21.6868L34.5034 22.5899C34.6366 22.7231 34.8184 22.7931 35.0003 22.7931C35.0913 22.7931 35.1822 22.779 35.2663 22.7371C35.5253 22.6321 35.7003 22.3731 35.7003 22.0931V18.5931H37.1003V24.1931H30.1003V18.5931L30.1 18.5999Z" fill="#FB7185"/>
<path d="M7.7 48H9.22593C9.5128 48.8118 10.2828 49.4 11.2 49.4C12.1169 49.4 12.88 48.8119 13.1741 48H15.5331C15.82 48.8118 16.59 49.4 17.5072 49.4C18.4241 49.4 19.1872 48.8119 19.4813 48H21.7072C22.0922 48 22.4072 47.685 22.4072 47.3V44.5C22.4072 44.3881 22.3791 44.2831 22.3303 44.185L20.9303 41.385C20.8113 41.1468 20.5663 41 20.3072 41H18.2072V40.3C18.2072 39.915 17.8922 39.6 17.5072 39.6H7.7C7.315 39.6 7 39.915 7 40.3V47.3C7 47.685 7.315 48 7.7 48H7.7ZM11.2 48C10.815 48 10.5 47.685 10.5 47.3C10.5 46.915 10.815 46.6 11.2 46.6C11.585 46.6 11.9 46.915 11.9 47.3C11.9 47.685 11.585 48 11.2 48ZM18.2 42.4H19.8659L21 44.6681V46.6H19.4741C19.2641 46.005 18.795 45.5431 18.2 45.3259V42.4ZM17.5 46.6C17.885 46.6 18.2 46.915 18.2 47.3C18.2 47.685 17.885 48 17.5 48C17.115 48 16.8 47.685 16.8 47.3C16.8 46.915 17.115 46.6 17.5 46.6ZM8.4 41H16.8V45.3259C16.205 45.5359 15.7431 46.005 15.5259 46.6H13.1669C12.88 45.7881 12.11 45.2 11.1928 45.2C10.2759 45.2 9.51281 45.7881 9.21873 46.6H8.39281V41H8.4Z" fill="#FB7185"/>
<path d="M47.5232 41.3849C47.4041 41.1467 47.1591 40.9999 46.9001 40.9999H44.8001V40.2999C44.8001 39.9149 44.4851 39.5999 44.1001 39.5999H34.3001C33.9151 39.5999 33.6001 39.9149 33.6001 40.2999V47.2999C33.6001 47.6849 33.9151 47.9999 34.3001 47.9999H35.826C36.1129 48.8117 36.8829 49.3999 37.8001 49.3999C38.717 49.3999 39.4801 48.8117 39.7742 47.9999H42.1332C42.4201 48.8117 43.1901 49.3999 44.1073 49.3999C45.0242 49.3999 45.7873 48.8117 46.0814 47.9999H48.3073C48.6923 47.9999 49.0073 47.6849 49.0073 47.2999V44.4999C49.0073 44.388 48.9792 44.283 48.9304 44.1849L47.5304 41.3849H47.5232ZM37.8 47.9999C37.415 47.9999 37.1 47.6849 37.1 47.2999C37.1 46.9149 37.415 46.5999 37.8 46.5999C38.185 46.5999 38.5 46.9149 38.5 47.2999C38.5 47.6849 38.185 47.9999 37.8 47.9999ZM42.1259 46.5999H39.7669C39.48 45.7881 38.71 45.1999 37.7928 45.1999C36.8759 45.1999 36.1128 45.788 35.8187 46.5999H34.9928V40.9999H43.3928V45.3258C42.7978 45.5358 42.3359 46.0049 42.1187 46.5999H42.1259ZM44.1 47.9999C43.715 47.9999 43.4 47.6849 43.4 47.2999C43.4 46.9149 43.715 46.5999 44.1 46.5999C44.485 46.5999 44.8 46.9149 44.8 47.2999C44.8 47.6849 44.485 47.9999 44.1 47.9999ZM47.6 46.5999H46.0741C45.8641 46.0049 45.395 45.543 44.8 45.3258V42.3999H46.4659L47.6 44.6681V46.5999Z" fill="#FB7185"/>
<path d="M27.3 6H28.7V7.4H27.3V6Z" fill="#FB7185"/>
</svg>
