<svg width="56" height="56" viewBox="0 0 56 56" fill="none" xmlns="http://www.w3.org/2000/svg">
<path d="M13.0224 36.0326C13.2977 36.3007 13.6156 36.5213 13.9631 36.685C14.0831 39.0172 14.5853 41.3138 15.4493 43.4834C15.8146 44.35 16.0049 45.2806 16.0093 46.221V48.6991C16.0093 49.256 16.2306 49.7904 16.6243 50.1841C17.0181 50.5778 17.5525 50.7991 18.1093 50.7991H26.5093C27.0662 50.7991 27.6006 50.5778 27.9942 50.1841C28.3879 49.7903 28.6092 49.2559 28.6092 48.6991C28.6108 47.5001 29.0196 46.337 29.7683 45.4007L34.3399 39.7014C34.4183 39.6207 34.4861 39.532 34.5596 39.4473C34.633 39.3626 34.6996 39.2961 34.7618 39.2148C34.8239 39.1336 34.8927 39.0257 34.9571 38.9307C35.0214 38.8354 35.0789 38.7614 35.1327 38.6723C35.1864 38.5835 35.2411 38.4685 35.2943 38.3657C35.3411 38.2754 35.3936 38.1873 35.4343 38.0942C35.4833 37.9857 35.5205 37.8729 35.563 37.7617C35.5974 37.6692 35.638 37.5798 35.668 37.4817C35.7058 37.3632 35.7318 37.2417 35.7611 37.1211C35.7836 37.0307 35.8124 36.942 35.8311 36.8507C35.8555 36.7242 35.8674 36.5951 35.8836 36.4679C35.8949 36.3792 35.9124 36.2917 35.9193 36.2026C35.9305 36.0564 35.9277 35.9092 35.9277 35.7623C35.9277 35.6923 35.9339 35.6182 35.9311 35.5461H35.9321C35.9218 35.3248 35.8986 35.1045 35.8621 34.8861L35.8074 34.5467L35.0774 30.0154C34.9993 29.5335 34.858 29.0641 34.6574 28.6188C34.6574 28.6104 34.6511 28.6007 34.6477 28.5923C34.6352 28.5642 34.6168 28.5392 34.6043 28.511H34.6039C33.9777 27.1889 32.859 26.1645 31.4871 25.6566L29.348 24.8679L31.7749 22.4879L34.2249 20.0328H34.2246C34.3896 19.8682 34.6268 19.7982 34.8546 19.8466C36.5708 20.211 38.3615 19.9172 39.8712 19.0235C41.3812 18.1297 42.4999 16.7013 43.0062 15.0213C43.2793 14.1148 43.3659 13.1623 43.2603 12.2213C43.2318 11.9607 43.1293 11.7135 42.9653 11.5088C42.8015 11.3041 42.5824 11.1504 42.3343 11.0657C42.0834 10.9769 41.8125 10.9613 41.5531 11.021C41.2937 11.0807 41.0568 11.2129 40.8699 11.4026L38.919 13.3919C38.6421 13.6566 38.2059 13.6566 37.929 13.3919L35.9543 11.4122C35.8224 11.2801 35.7483 11.1007 35.7493 10.9138C35.7502 10.7269 35.8258 10.5482 35.9593 10.4176L37.9102 8.4282C38.0984 8.24164 38.2296 8.00507 38.2884 7.74664C38.3471 7.4882 38.3312 7.2182 38.2421 6.96851C38.1571 6.72069 38.0034 6.50195 37.7987 6.33788C37.594 6.17413 37.3468 6.07195 37.0862 6.0432C35.4114 5.85632 33.7252 6.27976 32.3374 7.236C30.9496 8.19224 29.9534 9.61728 29.5318 11.2491C29.2593 12.2954 29.2353 13.391 29.4618 14.4482C29.5118 14.6757 29.4428 14.9128 29.2784 15.0782L25.2381 19.0891C24.809 18.5113 24.1731 18.1216 23.463 18.0026C22.7534 17.8832 22.0249 18.0435 21.4306 18.4494C20.8362 18.8554 20.4222 19.4757 20.2753 20.1804C19.6084 19.9904 18.8946 20.0548 18.2728 20.3607C17.6506 20.6666 17.1641 21.1925 16.9072 21.8366C16.6506 22.4807 16.6419 23.1969 16.8831 23.8469C16.8266 23.8526 16.7703 23.8604 16.7144 23.8685V23.8688C15.8275 24.011 15.0628 24.5698 14.6578 25.3713C14.2531 26.1731 14.2575 27.1203 14.6697 27.9182C13.8909 28.1576 13.2553 28.7247 12.9294 29.4716C12.6747 30.0619 12.6334 30.7226 12.8131 31.3398C12.2534 32.0054 11.9644 32.857 12.0035 33.7257C12.0422 34.5944 12.4063 35.417 13.0231 36.0298L13.0224 36.0326ZM13.6034 32.6481C13.6412 32.6831 13.6846 32.7097 13.7237 32.7425C13.7937 32.8013 13.8637 32.8622 13.9421 32.9141C14.0796 33.0078 14.2256 33.0888 14.3777 33.1563L17.1512 34.3638H17.1509C17.2759 34.4179 17.4043 34.4629 17.5353 34.4988L16.9674 35.0588H16.9677C16.879 35.1444 16.7831 35.2216 16.6806 35.29C16.6484 35.3116 16.6162 35.3319 16.5834 35.3516C16.5087 35.3963 16.4315 35.4363 16.3515 35.4713C16.3087 35.4894 16.2668 35.5097 16.2234 35.525C16.1365 35.5566 16.0478 35.5822 15.9574 35.6022C15.8909 35.6163 15.8237 35.626 15.7559 35.6344C15.7203 35.6385 15.6859 35.6413 15.6487 35.6435C15.3787 35.6622 15.1071 35.6291 14.8493 35.546H14.8353H14.8356C14.2637 35.3578 13.8009 34.9325 13.5649 34.3788C13.329 33.825 13.3431 33.1963 13.6034 32.6538L13.6034 32.6481ZM32.4138 27.8391C33.095 28.4747 33.5456 29.3185 33.6951 30.2378L34.4847 35.1106H34.4844C34.5113 35.2753 34.5279 35.4413 34.5341 35.6078C34.5747 36.6031 34.2613 37.5806 33.6494 38.3672C33.5475 38.4984 33.4375 38.6234 33.3203 38.7415C33.3028 38.759 33.2866 38.7772 33.2707 38.7969L28.6794 44.5244C27.7303 45.7091 27.2118 47.1809 27.2094 48.6991C27.2094 48.8847 27.1356 49.0629 27.0044 49.1941C26.8731 49.3253 26.695 49.3991 26.5094 49.3991H18.1094C17.7228 49.3991 17.4094 49.0857 17.4094 48.6991V46.2209C17.4047 45.0962 17.1775 43.9834 16.7403 42.9472C15.985 41.0625 15.5269 39.0721 15.3821 37.0469H15.4087C15.4387 37.0469 15.4681 37.0553 15.4984 37.0553C15.6434 37.0503 15.7881 37.0369 15.9315 37.0147C15.9909 37.0078 16.0512 37.0078 16.11 36.9978H16.1103C16.2765 36.9656 16.4403 36.9216 16.6003 36.8656C16.6584 36.8469 16.7193 36.8362 16.7765 36.8144C16.9528 36.7425 17.1228 36.6566 17.2856 36.5575C17.3212 36.5359 17.3606 36.5225 17.3956 36.5L17.3953 36.5003C17.5968 36.3725 17.7843 36.2241 17.9553 36.0578L21.8802 32.2078C22.3287 32.0844 22.7384 31.8484 23.0702 31.5225C23.0827 31.51 23.0955 31.4987 23.1074 31.4862V31.4859C23.2124 31.3812 23.3096 31.2688 23.3977 31.1494C23.6246 30.8359 23.783 30.4781 23.8627 30.0994C24.0796 30.1044 24.2965 30.0831 24.5087 30.0363C25.0174 30.53 25.629 30.905 26.2993 31.1353L27.9659 31.7694V31.7697C28.3371 31.9106 28.599 32.2462 28.6456 32.6403C28.6987 33.1394 28.4031 33.6097 27.9302 33.7778C24.183 35.1862 22.0593 37.585 21.6178 40.9065C21.5887 41.0928 21.6359 41.2828 21.7487 41.4334C21.8615 41.5844 22.0303 41.6834 22.2168 41.7084C22.4037 41.7331 22.5925 41.6819 22.7409 41.5656C22.889 41.4497 22.9843 41.2787 23.0053 41.0915C23.379 38.2819 25.1515 36.3181 28.4234 35.0884L28.4231 35.0881C29.0591 34.8587 29.5728 34.3787 29.8447 33.7599C30.1166 33.1412 30.1228 32.4378 29.8619 31.8143C29.6007 31.1909 29.0953 30.7019 28.4637 30.4612L26.7759 29.8194C26.1678 29.6084 25.63 29.2325 25.2228 28.7338C25.1356 28.6272 25.055 28.5153 24.9812 28.3991C24.94 28.3353 24.8987 28.2725 24.8615 28.2059C24.7897 28.0738 24.7265 27.9372 24.6718 27.7972C24.6356 27.7063 24.5978 27.6159 24.569 27.5228C24.5403 27.4297 24.5206 27.3491 24.499 27.2609C24.4759 27.1566 24.4612 27.0509 24.4478 26.9459C24.4372 26.855 24.4225 26.7647 24.4178 26.6728V26.5909C24.4153 26.4616 24.42 26.3322 24.4318 26.2031C24.4359 26.1584 24.4397 26.1134 24.4459 26.0631C24.45 26.0281 24.4543 25.9931 24.46 25.9569H24.4597C24.4903 25.76 24.5372 25.5663 24.5997 25.3772C24.7234 25.0175 25.1115 24.8222 25.4741 24.9375L31.0041 26.9753C31.5266 27.1669 32.0059 27.4603 32.4137 27.8391L32.4138 27.8391ZM30.2707 16.0679C30.771 15.5673 30.9819 14.8463 30.8307 14.1548C30.5413 12.7889 30.7732 11.3642 31.4807 10.1604C32.1878 8.95663 33.3197 8.06103 34.6538 7.64911C35.3844 7.42224 36.1541 7.35224 36.9135 7.44317L34.9647 9.43253C34.571 9.82629 34.3497 10.3604 34.3497 10.9173C34.3497 11.4741 34.571 12.0082 34.9647 12.402L36.9444 14.3823C37.3447 14.766 37.8779 14.9795 38.4326 14.9785C38.987 14.9779 39.5195 14.7623 39.9185 14.3776L41.8735 12.377H41.8739C41.9573 13.1298 41.8873 13.8917 41.6679 14.617C41.2626 15.9591 40.3679 17.1001 39.1614 17.8142C37.9548 18.5279 36.5238 18.7629 35.1523 18.4726C34.4592 18.3229 33.7376 18.5357 33.2364 19.0373L28.2664 23.9617C28.2614 23.9476 28.2517 23.9351 28.2467 23.9211L28.247 23.9214C28.1823 23.7395 28.0989 23.5651 27.9976 23.4011V23.397L26.0236 20.2798L30.2707 16.0679ZM22.2611 19.5792C22.5748 19.3808 22.9545 19.3148 23.3167 19.3964C23.6788 19.4776 23.9938 19.6995 24.1926 20.0132L24.537 20.5564L26.637 23.8701L25.946 23.6154C25.4195 23.4326 24.8416 23.4686 24.3416 23.7148C24.2726 23.7523 24.2057 23.7933 24.1413 23.838L21.6575 21.0735H21.6579C21.5907 20.7926 21.6129 20.4979 21.721 20.2301C21.8291 19.9623 22.0179 19.7348 22.261 19.5792L22.2611 19.5792ZM18.5195 21.8823H18.5198C18.7866 21.6186 19.1476 21.4723 19.5226 21.4761C19.8976 21.4798 20.2557 21.6329 20.5176 21.9017L23.2645 24.9601C23.2289 25.0685 23.1945 25.1807 23.1664 25.2995C22.8864 26.3811 22.9882 27.5257 23.4548 28.5404L19.6392 24.9817L18.5192 23.8617H18.5189C18.2564 23.5992 18.1089 23.2429 18.1089 22.8717C18.1089 22.5001 18.2564 22.1442 18.5189 21.8814L18.5195 21.8823ZM16.0229 25.8092C16.2404 25.5083 16.5688 25.3064 16.9354 25.2473C17.3019 25.1886 17.6769 25.2779 17.9779 25.4954L18.7066 26.0217L22.5194 29.5767V29.6061C22.5025 29.8649 22.4135 30.1136 22.2625 30.3242C22.2578 30.3289 22.2538 30.3336 22.25 30.3389C22.2032 30.4017 22.1513 30.4605 22.0944 30.5145C22.0894 30.5195 22.0832 30.523 22.0782 30.528H22.0785C21.8882 30.6999 21.6547 30.8167 21.4032 30.8661C21.1516 30.9155 20.8913 30.8955 20.6503 30.808L16.8703 28.148L16.3432 27.7664C16.0407 27.5499 15.8369 27.2217 15.7766 26.8546C15.7166 26.4871 15.805 26.1111 16.0228 25.8093L16.0229 25.8092ZM14.2119 30.0302C14.3607 29.6902 14.6385 29.4233 14.9841 29.2883C15.3297 29.153 15.7147 29.1605 16.0551 29.3092L16.1166 29.3358L19.6538 31.822L19.6535 31.8223C19.6563 32.0058 19.622 32.1883 19.5529 32.3583C19.4048 32.6989 19.1273 32.9667 18.782 33.1026C18.4363 33.2386 18.051 33.2317 17.7104 33.0836L14.9369 31.8761C14.9285 31.8726 14.9207 31.8664 14.9126 31.8626V31.8629C14.8316 31.8264 14.7547 31.7823 14.6822 31.7311C14.6738 31.7248 14.6669 31.717 14.6591 31.7107C14.4797 31.5736 14.3357 31.3954 14.2391 31.1914C14.2391 31.1873 14.2313 31.1845 14.2294 31.1801C14.2176 31.1542 14.2013 31.1311 14.191 31.1045L14.1907 31.1048C14.0538 30.7583 14.0613 30.3711 14.2119 30.0301L14.2119 30.0302Z" fill="#FB7185"/>
<path d="M20.4872 14.2432C20.4006 14.416 20.4703 14.6263 20.6431 14.7129L22.0431 15.4129C22.1263 15.4554 22.2228 15.4629 22.3116 15.4338C22.4003 15.4047 22.4734 15.3416 22.5153 15.2582C22.5572 15.1747 22.5638 15.0779 22.5341 14.9897C22.5044 14.9013 22.4406 14.8282 22.3569 14.7872L20.9569 14.0872C20.7841 14.0007 20.5738 14.0704 20.4872 14.2432L20.4872 14.2432Z" fill="#FB7185"/>
<path d="M22.9 13.35C23.0419 13.3503 23.1697 13.265 23.2241 13.134C23.2781 13.0031 23.2481 12.8522 23.1478 12.7522L21.7478 11.3522C21.6109 11.2153 21.3891 11.2153 21.2522 11.3522C21.1153 11.489 21.1153 11.7109 21.2522 11.8478L22.6522 13.2478C22.7178 13.3134 22.8072 13.3503 22.9 13.35H22.9Z" fill="#FB7185"/>
<path d="M25.3504 13V12.3C25.3504 12.1065 25.1938 11.95 25.0004 11.95C24.8069 11.95 24.6504 12.1065 24.6504 12.3V13C24.6504 13.1934 24.8069 13.35 25.0004 13.35C25.1938 13.35 25.3504 13.1934 25.3504 13Z" fill="#FB7185"/>
</svg>
