<svg width="57" height="56" viewBox="0 0 57 56" fill="none" xmlns="http://www.w3.org/2000/svg">
<path d="M39.727 18.5984C39.872 19.0078 40.1401 19.3625 40.4948 19.6135C40.8492 19.8644 41.2729 19.9991 41.7073 19.9997H44.5073V18.5997H41.7073C41.4104 18.5991 41.1457 18.4119 41.047 18.1319L40.9648 17.8997H44.5101C44.8113 17.8997 45.0791 17.7069 45.1744 17.421L46.8054 12.521C46.8766 12.3072 46.8407 12.0728 46.7092 11.8903C46.5773 11.7078 46.366 11.5997 46.141 11.5997H38.7317L38.4007 10.666C38.302 10.3863 38.0376 10.1997 37.741 10.1997H35.641V11.5997H37.2469L39.727 18.5984ZM45.1704 12.9997L44.0057 16.4997H40.4685L39.2279 12.9997H45.1704Z" fill="#FB7185"/>
<path d="M41.2414 20.7C41.6279 20.7 41.9414 21.0865 41.9414 21.3999C41.9414 21.7865 41.6279 22.0999 41.2414 22.0999C40.8548 22.0999 40.5414 21.7134 40.5414 21.3999C40.5414 21.0134 40.8548 20.7 41.2414 20.7Z" fill="#FB7185"/>
<path d="M44.0414 20.7C44.4279 20.7 44.7414 21.0865 44.7414 21.3999C44.7414 21.7865 44.4279 22.0999 44.0414 22.0999C43.6548 22.0999 43.3414 21.7134 43.3414 21.3999C43.3414 21.0134 43.6548 20.7 44.0414 20.7Z" fill="#FB7185"/>
<path d="M33.5414 15.8H37.0414V17.2H33.5414V15.8Z" fill="#FB7185"/>
<path d="M35.6414 18.6H38.4414V20H35.6414V18.6Z" fill="#FB7185"/>
<path d="M9.27496 30.1503L9.3009 30.0838C10.1159 27.9554 11.0387 25.5451 12.965 23.7331C13.4012 23.4256 17.4078 20.5972 17.4078 20.5966C17.5553 20.5047 17.7375 20.4888 17.8984 20.5535C18.0665 20.6175 18.1875 20.7663 18.2165 20.9438C18.244 21.1272 18.1703 21.3116 18.0237 21.4253L14.9706 24.3009C14.7272 24.53 14.6525 24.8869 14.7834 25.1947C14.9178 25.5019 15.2284 25.6941 15.5634 25.6769L20.8865 25.3647C21.23 25.3759 21.5703 25.2984 21.8749 25.14L26.269 22.7803C26.6615 22.9447 26.9418 23.2988 27.0115 23.7185L21.1093 27.3926C20.9784 27.4754 20.8378 27.5422 20.6909 27.5919L17.5771 28.6441C16.2196 29.1025 13.8619 30.1128 13.3247 31.7259C13.3165 31.7488 13.31 31.7719 13.3047 31.7953L12.8378 33.8963L14.205 34.2L14.6637 32.1391C14.9297 31.4203 16.2421 30.5722 18.0256 29.97L20.4293 29.1582L19.6528 31.5423L19.499 31.5207H19.4987C19.1509 31.4704 18.8203 31.687 18.7272 32.026L14.8075 46.098C14.7537 46.2896 14.7844 46.4949 14.8912 46.6627C14.9984 46.8305 15.1715 46.9446 15.3678 46.9768L20.7296 47.8574L20.6637 48.6412C20.6471 48.8362 20.7131 49.0296 20.8456 49.1737C20.9781 49.318 21.1649 49.3999 21.3609 49.3999H30.1809C30.3768 49.3999 30.5637 49.318 30.6965 49.1737C30.829 49.0296 30.8949 48.8362 30.8784 48.6412L30.8077 47.8024L37.2302 45.9943C37.4162 45.9421 37.5721 45.8155 37.6615 45.6443C37.7509 45.4733 37.7655 45.2727 37.7018 45.0905L32.8018 31.0177C32.6802 30.6683 32.3077 30.474 31.9515 30.574L31.3399 30.7462L30.0299 23.3058L30.0168 23.308C30.3993 22.7918 30.493 22.1162 30.2649 21.5155C30.068 21.0046 29.6624 20.6024 29.1502 20.4093C28.6305 20.2127 28.052 20.2452 27.558 20.499L27.483 20.5393L27.5246 20.479V20.4793C27.789 20.0562 27.8521 19.5375 27.6968 19.0634C27.5412 18.5893 27.1833 18.2087 26.7199 18.0243C26.3699 17.8828 25.9827 17.8609 25.6186 17.9625C25.2549 18.0637 24.9346 18.2825 24.708 18.5847L23.6567 19.9956C23.6408 20.0172 23.6217 20.0366 23.5998 20.0528L18.2073 24.1206L17.137 24.1828L18.9595 22.465L18.9598 22.4647C19.4648 22.0309 19.7064 21.3647 19.5964 20.7078C19.4864 20.0512 19.0408 19.5 18.4217 19.2547C17.8313 19.0212 17.1648 19.0869 16.6313 19.4309C12.0697 22.6509 12.0697 22.6509 12.0445 22.6765C9.85758 24.7131 8.86694 27.3 7.99286 29.5824L7.00006 31.834L8.28102 32.4L9.27496 30.1503ZM20.8478 46.4583L16.3653 45.7221L19.9112 32.9925L21.9581 33.2806L20.8478 46.4583ZM21.0615 31.7407L22.1525 28.3926L23.1112 27.7957V30.5485H22.8315C22.4678 30.5485 22.1646 30.8273 22.1343 31.1898L22.0759 31.8835L21.0615 31.7407ZM31.6975 32.1011L36.1359 44.8491L30.6887 46.3828L29.5369 32.7092L31.6975 32.1011ZM29.9831 31.1045L30.2197 31.0629L29.4172 31.2889L29.4088 31.1901V31.1898C29.3784 30.8273 29.0753 30.5486 28.7116 30.5486H28.4319V24.4838L28.7791 24.2676L29.9831 31.1045ZM28.2056 21.7413C28.345 21.6716 28.5071 21.6632 28.6528 21.7185C28.7959 21.7732 28.9087 21.8863 28.9631 22.0291C29.0362 22.2744 28.9303 22.5375 28.7075 22.6635L28.2431 22.9525V22.9529C28.1087 22.6113 27.904 22.3016 27.6428 22.0438L28.2056 21.7413ZM28.0681 31.9485L29.4206 48.0005H22.123L23.4752 31.9485H28.0681ZM27.0318 30.5485H24.5115V26.9244L27.0318 25.3554V30.5485ZM24.4446 21.1709C24.5709 21.0753 24.6831 20.9625 24.7781 20.8356L25.8315 19.4221V19.4225C25.9178 19.3115 26.0671 19.2712 26.1971 19.3234C26.2784 19.3546 26.3412 19.4206 26.3681 19.5034C26.3928 19.5709 26.3884 19.6453 26.3565 19.7096L24.7768 21.9934L21.2287 23.8987H21.229C21.1174 23.9556 20.9918 23.9793 20.8674 23.9665L20.7281 23.9746L24.4446 21.1709Z" fill="#FB7185"/>
<path d="M40.5414 25.6C43.1404 25.6 45.6332 24.5675 47.471 22.7297C49.3089 20.8918 50.3414 18.399 50.3414 15.8C50.3414 13.201 49.3089 10.7082 47.471 8.87032C45.6332 7.03248 43.1404 6 40.5414 6C37.9423 6 35.4495 7.03248 33.6117 8.87032C31.7739 10.7082 30.7414 13.201 30.7414 15.8C30.7442 18.3982 31.7776 20.889 33.6148 22.7265C35.4523 24.5637 37.9432 25.5972 40.5414 25.6ZM40.5414 7.4C42.7692 7.4 44.9058 8.28496 46.481 9.86032C48.0563 11.4357 48.9414 13.5722 48.9414 15.8C48.9414 18.0278 48.0564 20.1644 46.481 21.7397C44.9057 23.3149 42.7692 24.2 40.5414 24.2C38.3135 24.2 36.177 23.315 34.6017 21.7397C33.0264 20.1643 32.1414 18.0278 32.1414 15.8C32.1439 13.5728 33.0298 11.4378 34.6045 9.86312C36.1792 8.2884 38.3142 7.40248 40.5414 7.4Z" fill="#FB7185"/>
</svg>
